<svg xmlns="http://www.w3.org/2000/svg" xmlns:xlink="http://www.w3.org/1999/xlink" width="298" zoomAndPan="magnify" viewBox="0 0 223.5 218.249992" height="291" preserveAspectRatio="xMidYMid meet" version="1.0"><defs><g/><clipPath id="1cbf147838"><path d="M 0.132812 213 L 222.867188 213 L 222.867188 217.503906 L 0.132812 217.503906 Z M 0.132812 213 " clip-rule="nonzero"/></clipPath></defs><path fill="#000000" d="M 37.847656 0.0859375 C 38.097656 0.0859375 38.335938 0.132812 38.5625 0.226562 C 38.792969 0.320312 38.996094 0.457031 39.167969 0.632812 C 39.34375 0.804688 39.480469 1.007812 39.574219 1.238281 C 39.667969 1.464844 39.714844 1.703125 39.714844 1.953125 L 39.714844 214.058594 C 39.714844 214.304688 39.667969 214.542969 39.574219 214.773438 C 39.480469 215 39.34375 215.203125 39.167969 215.378906 C 38.996094 215.550781 38.792969 215.6875 38.5625 215.78125 C 38.335938 215.875 38.097656 215.925781 37.847656 215.925781 C 37.601562 215.925781 37.363281 215.875 37.136719 215.78125 C 36.90625 215.6875 36.703125 215.550781 36.527344 215.378906 C 36.355469 215.203125 36.21875 215 36.125 214.773438 C 36.03125 214.542969 35.980469 214.304688 35.980469 214.058594 L 35.980469 1.953125 C 35.980469 1.703125 36.03125 1.464844 36.125 1.238281 C 36.21875 1.007812 36.355469 0.804688 36.527344 0.632812 C 36.703125 0.457031 36.90625 0.320312 37.136719 0.226562 C 37.363281 0.132812 37.601562 0.0859375 37.847656 0.0859375 Z M 37.847656 0.0859375 " fill-opacity="1" fill-rule="nonzero"/><path fill="#000000" d="M 68.566406 0.269531 L 71.207031 2.910156 L 38.605469 35.511719 L 35.964844 32.871094 Z M 68.566406 0.269531 " fill-opacity="1" fill-rule="nonzero"/><g clip-path="url(#1cbf147838)"><path fill="#000000" d="M 222.867188 215.550781 C 222.867188 215.796875 222.820312 216.035156 222.726562 216.265625 C 222.632812 216.492188 222.496094 216.695312 222.320312 216.871094 C 222.148438 217.046875 221.945312 217.179688 221.714844 217.277344 C 221.488281 217.371094 221.25 217.417969 221 217.417969 L 2 217.417969 C 1.753906 217.417969 1.515625 217.371094 1.285156 217.277344 C 1.058594 217.179688 0.855469 217.046875 0.679688 216.871094 C 0.503906 216.695312 0.371094 216.492188 0.277344 216.265625 C 0.179688 216.035156 0.132812 215.796875 0.132812 215.550781 C 0.132812 215.304688 0.179688 215.066406 0.277344 214.835938 C 0.371094 214.609375 0.503906 214.40625 0.679688 214.230469 C 0.855469 214.054688 1.058594 213.921875 1.285156 213.824219 C 1.515625 213.730469 1.753906 213.683594 2 213.683594 L 221 213.683594 C 221.25 213.683594 221.488281 213.730469 221.714844 213.824219 C 221.945312 213.921875 222.148438 214.054688 222.320312 214.230469 C 222.496094 214.40625 222.632812 214.609375 222.726562 214.835938 C 222.820312 215.066406 222.867188 215.304688 222.867188 215.550781 Z M 222.867188 215.550781 " fill-opacity="1" fill-rule="nonzero"/></g><path fill="#000000" d="M 37.847656 0.0859375 L 173.777344 0.0859375 C 174.023438 0.0859375 174.261719 0.132812 174.492188 0.226562 C 174.71875 0.320312 174.921875 0.457031 175.097656 0.632812 C 175.273438 0.804688 175.40625 1.007812 175.5 1.238281 C 175.597656 1.464844 175.644531 1.703125 175.644531 1.953125 C 175.644531 2.199219 175.597656 2.4375 175.5 2.667969 C 175.40625 2.894531 175.273438 3.097656 175.097656 3.273438 C 174.921875 3.445312 174.71875 3.582031 174.492188 3.675781 C 174.261719 3.769531 174.023438 3.820312 173.777344 3.820312 L 37.847656 3.820312 C 37.601562 3.820312 37.363281 3.769531 37.136719 3.675781 C 36.90625 3.582031 36.703125 3.445312 36.527344 3.273438 C 36.355469 3.097656 36.21875 2.894531 36.125 2.667969 C 36.03125 2.4375 35.980469 2.199219 35.980469 1.953125 C 35.980469 1.703125 36.03125 1.464844 36.125 1.238281 C 36.21875 1.007812 36.355469 0.804688 36.527344 0.632812 C 36.703125 0.457031 36.90625 0.320312 37.136719 0.226562 C 37.363281 0.132812 37.601562 0.0859375 37.847656 0.0859375 Z M 37.847656 0.0859375 " fill-opacity="1" fill-rule="nonzero"/><path fill="#000000" d="M 173.777344 0.832031 C 174.023438 0.832031 174.261719 0.878906 174.492188 0.972656 C 174.71875 1.066406 174.921875 1.203125 175.097656 1.378906 C 175.273438 1.554688 175.40625 1.753906 175.5 1.984375 C 175.597656 2.210938 175.644531 2.449219 175.644531 2.699219 L 175.644531 35.558594 C 175.644531 35.808594 175.597656 36.046875 175.5 36.273438 C 175.40625 36.503906 175.273438 36.707031 175.097656 36.878906 C 174.921875 37.054688 174.71875 37.191406 174.492188 37.285156 C 174.261719 37.378906 174.023438 37.425781 173.777344 37.425781 C 173.527344 37.425781 173.289062 37.378906 173.0625 37.285156 C 172.832031 37.191406 172.632812 37.054688 172.457031 36.878906 C 172.28125 36.707031 172.144531 36.503906 172.050781 36.273438 C 171.957031 36.046875 171.910156 35.808594 171.910156 35.558594 L 171.910156 2.699219 C 171.910156 2.449219 171.957031 2.210938 172.050781 1.984375 C 172.144531 1.753906 172.28125 1.554688 172.457031 1.378906 C 172.632812 1.203125 172.832031 1.066406 173.0625 0.972656 C 173.289062 0.878906 173.527344 0.832031 173.777344 0.832031 Z M 173.777344 0.832031 " fill-opacity="1" fill-rule="nonzero"/><path fill="#000000" d="M 173.203125 74.78125 C 173.378906 74.957031 173.511719 75.15625 173.609375 75.386719 C 173.703125 75.613281 173.75 75.851562 173.75 76.101562 C 173.75 76.347656 173.703125 76.585938 173.609375 76.816406 C 173.511719 77.042969 173.378906 77.246094 173.203125 77.421875 L 146.269531 104.355469 C 146.09375 104.53125 145.894531 104.664062 145.664062 104.757812 C 145.433594 104.855469 145.195312 104.902344 144.949219 104.902344 C 144.703125 104.902344 144.464844 104.855469 144.234375 104.757812 C 144.007812 104.664062 143.804688 104.53125 143.628906 104.355469 C 143.453125 104.179688 143.320312 103.976562 143.222656 103.75 C 143.128906 103.519531 143.082031 103.28125 143.082031 103.035156 C 143.082031 102.785156 143.128906 102.546875 143.222656 102.320312 C 143.320312 102.089844 143.453125 101.890625 143.628906 101.714844 L 170.5625 74.78125 C 170.738281 74.605469 170.941406 74.46875 171.167969 74.375 C 171.398438 74.28125 171.636719 74.234375 171.882812 74.234375 C 172.128906 74.234375 172.367188 74.28125 172.597656 74.375 C 172.824219 74.46875 173.027344 74.605469 173.203125 74.78125 Z M 173.203125 74.78125 " fill-opacity="1" fill-rule="nonzero"/><path fill="#000000" d="M 174.695312 124.820312 C 174.871094 124.996094 175.007812 125.195312 175.101562 125.425781 C 175.195312 125.652344 175.242188 125.890625 175.242188 126.140625 C 175.242188 126.386719 175.195312 126.625 175.101562 126.855469 C 175.007812 127.082031 174.871094 127.285156 174.695312 127.460938 L 147.761719 154.394531 C 147.589844 154.570312 147.386719 154.703125 147.15625 154.796875 C 146.929688 154.894531 146.691406 154.941406 146.441406 154.941406 C 146.195312 154.941406 145.957031 154.894531 145.730469 154.796875 C 145.5 154.703125 145.296875 154.570312 145.121094 154.394531 C 144.949219 154.21875 144.8125 154.015625 144.71875 153.789062 C 144.625 153.558594 144.574219 153.320312 144.574219 153.074219 C 144.574219 152.824219 144.625 152.585938 144.71875 152.359375 C 144.8125 152.128906 144.949219 151.929688 145.121094 151.753906 L 172.054688 124.820312 C 172.230469 124.644531 172.433594 124.507812 172.660156 124.414062 C 172.890625 124.320312 173.128906 124.273438 173.375 124.273438 C 173.625 124.273438 173.863281 124.320312 174.089844 124.414062 C 174.320312 124.507812 174.523438 124.644531 174.695312 124.820312 Z M 174.695312 124.820312 " fill-opacity="1" fill-rule="nonzero"/><path fill="#000000" d="M 174.347656 74.78125 C 174.523438 74.605469 174.726562 74.46875 174.957031 74.375 C 175.183594 74.28125 175.421875 74.234375 175.667969 74.234375 C 175.917969 74.234375 176.15625 74.28125 176.382812 74.375 C 176.613281 74.46875 176.816406 74.605469 176.988281 74.78125 L 203.921875 101.714844 C 204.097656 101.890625 204.234375 102.089844 204.328125 102.320312 C 204.421875 102.546875 204.46875 102.785156 204.46875 103.035156 C 204.46875 103.28125 204.421875 103.519531 204.328125 103.75 C 204.234375 103.976562 204.097656 104.179688 203.921875 104.355469 C 203.75 104.527344 203.546875 104.664062 203.316406 104.757812 C 203.089844 104.855469 202.851562 104.902344 202.601562 104.902344 C 202.355469 104.902344 202.117188 104.855469 201.886719 104.757812 C 201.660156 104.664062 201.457031 104.527344 201.28125 104.355469 L 174.347656 77.421875 C 174.175781 77.246094 174.039062 77.042969 173.945312 76.816406 C 173.851562 76.585938 173.804688 76.347656 173.804688 76.101562 C 173.804688 75.851562 173.851562 75.613281 173.945312 75.386719 C 174.039062 75.15625 174.175781 74.957031 174.347656 74.78125 Z M 174.347656 74.78125 " fill-opacity="1" fill-rule="nonzero"/><path fill="#000000" d="M 175.496094 124.820312 L 202.429688 151.753906 C 202.605469 151.929688 202.738281 152.128906 202.835938 152.359375 C 202.929688 152.585938 202.976562 152.824219 202.976562 153.074219 C 202.976562 153.320312 202.929688 153.558594 202.835938 153.789062 C 202.738281 154.015625 202.605469 154.21875 202.429688 154.394531 C 202.253906 154.570312 202.050781 154.703125 201.824219 154.796875 C 201.59375 154.894531 201.355469 154.941406 201.109375 154.941406 C 200.863281 154.941406 200.625 154.894531 200.394531 154.796875 C 200.167969 154.703125 199.964844 154.570312 199.789062 154.394531 L 172.855469 127.460938 C 172.125 126.730469 174.765625 124.089844 175.496094 124.820312 Z M 175.496094 124.820312 " fill-opacity="1" fill-rule="nonzero"/><path stroke-linecap="butt" transform="matrix(0.74685, 0, 0, 0.74685, 152.864394, 33.877374)" fill="none" stroke-linejoin="miter" d="M 52.500265 27.497741 C 52.500265 28.318898 52.458423 29.134825 52.379968 29.950752 C 52.301514 30.766678 52.181217 31.572145 52.019077 32.377611 C 51.862168 33.177847 51.663417 33.972853 51.422823 34.757398 C 51.18746 35.541943 50.910254 36.310797 50.596436 37.06919 C 50.282618 37.822354 49.932188 38.565056 49.550376 39.286838 C 49.163333 40.008619 48.739679 40.709479 48.284643 41.389419 C 47.829607 42.069358 47.343189 42.728375 46.825389 43.361242 C 46.307589 43.994108 45.758408 44.600823 45.177845 45.176156 C 44.597281 45.756719 43.990566 46.305901 43.3577 46.823701 C 42.724834 47.346731 42.071046 47.833149 41.391107 48.288185 C 40.705938 48.743221 40.005077 49.161645 39.283296 49.548687 C 38.561515 49.935729 37.824042 50.28616 37.065649 50.594747 C 36.312485 50.908565 35.538401 51.185771 34.759086 51.421135 C 33.974541 51.661729 33.179535 51.86048 32.3793 52.017389 C 31.573833 52.179528 30.763137 52.299825 29.95244 52.37828 C 29.136513 52.461964 28.320586 52.498577 27.499429 52.498577 C 26.683502 52.498577 25.862345 52.461964 25.051649 52.37828 C 24.235722 52.299825 23.425025 52.179528 22.624789 52.017389 C 21.819323 51.86048 21.024317 51.661729 20.245003 51.421135 C 19.460458 51.185771 18.691603 50.908565 17.93321 50.594747 C 17.174816 50.28616 16.437344 49.935729 15.715562 49.548687 C 14.993781 49.161645 14.292921 48.743221 13.612982 48.288185 C 12.927812 47.833149 12.274025 47.346731 11.641158 46.823701 C 11.008292 46.305901 10.401577 45.756719 9.821014 45.176156 C 9.245681 44.600823 8.696499 43.994108 8.173469 43.361242 C 7.65567 42.728375 7.169252 42.069358 6.714215 41.389419 C 6.259179 40.709479 5.835525 40.008619 5.453713 39.286838 C 5.066671 38.565056 4.716241 37.822354 4.402423 37.06919 C 4.088605 36.310797 3.816629 35.541943 3.576035 34.757398 C 3.340672 33.972853 3.14192 33.177847 2.979781 32.377611 C 2.822872 31.572145 2.702575 30.766678 2.61889 29.950752 C 2.540436 29.134825 2.498593 28.318898 2.498593 27.497741 C 2.498593 26.681814 2.540436 25.865887 2.61889 25.04996 C 2.702575 24.234033 2.822872 23.423337 2.979781 22.623101 C 3.14192 21.817634 3.340672 21.027859 3.576035 20.243314 C 3.816629 19.458769 4.088605 18.689915 4.402423 17.931521 C 4.716241 17.178358 5.066671 16.435655 5.453713 15.713874 C 5.835525 14.992092 6.259179 14.291232 6.714215 13.611293 C 7.169252 12.931354 7.65567 12.272336 8.173469 11.63947 C 8.696499 11.006604 9.245681 10.399889 9.821014 9.824556 C 10.401577 9.243992 11.008292 8.694811 11.641158 8.177011 C 12.274025 7.653981 12.927812 7.167563 13.612982 6.712527 C 14.292921 6.257491 14.993781 5.839067 15.715562 5.452025 C 16.437344 5.064982 17.174816 4.714552 17.93321 4.400734 C 18.691603 4.092146 19.460458 3.81494 20.245003 3.574347 C 21.024317 3.338983 21.819323 3.140232 22.624789 2.978092 C 23.425025 2.821183 24.235722 2.700887 25.051649 2.622432 C 25.862345 2.538747 26.683502 2.502135 27.499429 2.502135 C 28.320586 2.502135 29.136513 2.538747 29.95244 2.622432 C 30.763137 2.700887 31.573833 2.821183 32.3793 2.978092 C 33.179535 3.140232 33.974541 3.338983 34.759086 3.574347 C 35.538401 3.81494 36.312485 4.092146 37.065649 4.400734 C 37.824042 4.714552 38.561515 5.064982 39.283296 5.452025 C 40.005077 5.839067 40.705938 6.257491 41.391107 6.712527 C 42.071046 7.167563 42.724834 7.653981 43.3577 8.177011 C 43.990566 8.694811 44.597281 9.243992 45.177845 9.824556 C 45.758408 10.399889 46.307589 11.006604 46.825389 11.63947 C 47.343189 12.272336 47.829607 12.931354 48.284643 13.611293 C 48.739679 14.291232 49.163333 14.992092 49.550376 15.713874 C 49.932188 16.435655 50.282618 17.178358 50.596436 17.931521 C 50.910254 18.689915 51.18746 19.458769 51.422823 20.243314 C 51.663417 21.027859 51.862168 21.817634 52.019077 22.623101 C 52.181217 23.423337 52.301514 24.234033 52.379968 25.04996 C 52.458423 25.865887 52.500265 26.681814 52.500265 27.497741 Z M 52.500265 27.497741 " stroke="#000000" stroke-width="5" stroke-opacity="1" stroke-miterlimit="4"/><path fill="#000000" d="M 173.777344 73.277344 C 174.023438 73.277344 174.261719 73.324219 174.492188 73.417969 C 174.71875 73.511719 174.921875 73.648438 175.097656 73.824219 C 175.273438 73.996094 175.40625 74.199219 175.5 74.429688 C 175.597656 74.65625 175.644531 74.894531 175.644531 75.144531 L 175.644531 125.929688 C 175.644531 126.175781 175.597656 126.414062 175.5 126.644531 C 175.40625 126.871094 175.273438 127.074219 175.097656 127.25 C 174.921875 127.425781 174.71875 127.558594 174.492188 127.652344 C 174.261719 127.75 174.023438 127.796875 173.777344 127.796875 C 173.527344 127.796875 173.289062 127.75 173.0625 127.652344 C 172.832031 127.558594 172.632812 127.425781 172.457031 127.25 C 172.28125 127.074219 172.144531 126.871094 172.050781 126.644531 C 171.957031 126.414062 171.910156 126.175781 171.910156 125.929688 L 171.910156 75.144531 C 171.910156 74.894531 171.957031 74.65625 172.050781 74.429688 C 172.144531 74.199219 172.28125 73.996094 172.457031 73.824219 C 172.632812 73.648438 172.832031 73.511719 173.0625 73.417969 C 173.289062 73.324219 173.527344 73.277344 173.777344 73.277344 Z M 173.777344 73.277344 " fill-opacity="1" fill-rule="nonzero"/><g fill="#000000" fill-opacity="1"><g transform="translate(159.673552, 60.005832)"><g><path d="M 8.921875 -0.390625 C 8.941406 -0.347656 8.953125 -0.296875 8.953125 -0.234375 C 8.953125 -0.179688 8.925781 -0.128906 8.875 -0.078125 C 8.820312 -0.0234375 8.757812 0 8.6875 0 L 6 0 C 5.78125 0 5.617188 -0.09375 5.515625 -0.28125 L 4.46875 -1.875 L 3.484375 -0.28125 C 3.367188 -0.09375 3.203125 0 2.984375 0 L 0.375 0 C 0.3125 0 0.253906 -0.0234375 0.203125 -0.078125 C 0.148438 -0.128906 0.125 -0.179688 0.125 -0.234375 C 0.125 -0.296875 0.132812 -0.347656 0.15625 -0.390625 L 2.671875 -4.28125 L 0.40625 -7.96875 C 0.382812 -8.019531 0.375 -8.070312 0.375 -8.125 C 0.375 -8.1875 0.398438 -8.238281 0.453125 -8.28125 C 0.503906 -8.332031 0.566406 -8.359375 0.640625 -8.359375 L 3.234375 -8.359375 C 3.453125 -8.359375 3.617188 -8.257812 3.734375 -8.0625 L 4.5625 -6.609375 L 5.46875 -8.0625 C 5.582031 -8.257812 5.75 -8.359375 5.96875 -8.359375 L 8.453125 -8.359375 C 8.523438 -8.359375 8.585938 -8.332031 8.640625 -8.28125 C 8.691406 -8.238281 8.71875 -8.1875 8.71875 -8.125 C 8.71875 -8.0625 8.703125 -8.007812 8.671875 -7.96875 L 6.375 -4.3125 Z M 8.921875 -0.390625 "/></g></g></g></svg>